<svg width="381" height="343" viewBox="0 0 381 343" fill="none" xmlns="http://www.w3.org/2000/svg">
<g clip-path="url(#clip0_37_468)">
<path d="M190.5 253.167C290.7 253.167 371.929 216.603 371.929 171.5C371.929 126.397 290.7 89.8333 190.5 89.8333C90.2998 89.8333 9.07144 126.397 9.07144 171.5C9.07144 216.603 90.2998 253.167 190.5 253.167Z" stroke="#FBBC04" stroke-width="4"/>
<path d="M119.795 212.333C169.895 299.135 242.165 351.219 281.214 328.668C320.263 306.116 311.305 217.468 261.205 130.667C211.105 43.8653 138.835 -8.21927 99.7857 14.3324C60.7366 36.884 69.6951 125.532 119.795 212.333Z" stroke="#FBBC04" stroke-width="4"/>
<path d="M119.795 130.667C69.6951 217.468 60.7366 306.116 99.7857 328.668C138.835 351.219 211.105 299.135 261.205 212.333C311.305 125.532 320.263 36.8841 281.214 14.3324C242.165 -8.21919 169.895 43.8654 119.795 130.667Z" stroke="#FBBC04" stroke-width="4"/>
<path d="M190.5 174.458C192.134 174.458 193.458 173.134 193.458 171.5C193.458 169.866 192.134 168.542 190.5 168.542C188.866 168.542 187.542 169.866 187.542 171.5C187.542 173.134 188.866 174.458 190.5 174.458Z" stroke="#FBBC04" stroke-width="4" stroke-linecap="round" stroke-linejoin="round"/>
<path d="M214.758 195.758C220.793 189.753 214.817 173.985 201.446 160.554C188.015 147.183 172.247 141.207 166.242 147.242C160.207 153.247 166.182 169.015 179.554 182.446C192.985 195.818 208.753 201.793 214.758 195.758Z" stroke="#FBBC04" stroke-width="4" stroke-linecap="round" stroke-linejoin="round"/>
<path d="M201.446 182.446C214.817 169.015 220.793 153.247 214.758 147.242C208.753 141.207 192.985 147.183 179.554 160.554C166.182 173.985 160.207 189.753 166.242 195.758C172.247 201.793 188.015 195.818 201.446 182.446Z" stroke="#FBBC04" stroke-width="4" stroke-linecap="round" stroke-linejoin="round"/>
</g>
<defs>
<clipPath id="clip0_37_468">
<rect width="381" height="343" fill="white"/>
</clipPath>
</defs>
</svg>